<?xml version="1.0"?>
<svg xmlns="http://www.w3.org/2000/svg" xmlns:xlink="http://www.w3.org/1999/xlink" xmlns:svgjs="http://svgjs.com/svgjs" version="1.1" width="512" height="512" x="0" y="0" viewBox="0 0 294.834 294.834" style="enable-background:new 0 0 512 512" xml:space="preserve" class=""><g transform="matrix(-1,1.2246467991473532e-16,-1.2246467991473532e-16,-1,294.8340148925781,294.8340148925781)">
<g xmlns="http://www.w3.org/2000/svg">
	<path d="M288.834,0H47.413c-3.313,0-6,2.687-6,6v17.398c0,3.313,2.687,6,6,6s6-2.687,6-6V12h229.421v229.421h-11.398   c-3.313,0-6,2.687-6,6s2.687,6,6,6h17.398c3.313,0,6-2.687,6-6V6C294.834,2.687,292.147,0,288.834,0z" fill="#000000" data-original="#000000" style="" class=""/>
	<path d="M247.421,41.413H6c-3.313,0-6,2.687-6,6v241.421c0,3.313,2.687,6,6,6h241.421c3.313,0,6-2.687,6-6V47.413   C253.421,44.1,250.734,41.413,247.421,41.413z M241.421,282.834H12V53.413h229.421V282.834z" fill="#000000" data-original="#000000" style="" class=""/>
</g>
<g xmlns="http://www.w3.org/2000/svg">
</g>
<g xmlns="http://www.w3.org/2000/svg">
</g>
<g xmlns="http://www.w3.org/2000/svg">
</g>
<g xmlns="http://www.w3.org/2000/svg">
</g>
<g xmlns="http://www.w3.org/2000/svg">
</g>
<g xmlns="http://www.w3.org/2000/svg">
</g>
<g xmlns="http://www.w3.org/2000/svg">
</g>
<g xmlns="http://www.w3.org/2000/svg">
</g>
<g xmlns="http://www.w3.org/2000/svg">
</g>
<g xmlns="http://www.w3.org/2000/svg">
</g>
<g xmlns="http://www.w3.org/2000/svg">
</g>
<g xmlns="http://www.w3.org/2000/svg">
</g>
<g xmlns="http://www.w3.org/2000/svg">
</g>
<g xmlns="http://www.w3.org/2000/svg">
</g>
<g xmlns="http://www.w3.org/2000/svg">
</g>
</g></svg>
