<?xml version="1.0"?>
<svg xmlns="http://www.w3.org/2000/svg" xmlns:xlink="http://www.w3.org/1999/xlink" xmlns:svgjs="http://svgjs.com/svgjs" version="1.1" width="512" height="512" x="0" y="0" viewBox="0 0 280 280" style="enable-background:new 0 0 512 512" xml:space="preserve" class=""><rect width="280" height="280" fill="#000000" shape="square" transform="matrix(0.52,0,0,0.52,67.2,67.2)"/><g transform="matrix(-0.7,-8.572527594031472e-17,8.572527594031472e-17,-0.7,237.999169921875,238)">
<g xmlns="http://www.w3.org/2000/svg">
	<rect x="79.171" y="116.234" width="84.594" height="84.594" fill="#ffffff" data-original="#000000" style="" class=""/>
	<path d="M116.234,92.063h67.673c2.226,0,4.029,1.805,4.029,4.029v67.673h12.892V79.171h-84.594V92.063z" fill="#ffffff" data-original="#000000" style="" class=""/>
	<path d="M275.456,0H4.544C2.034,0,0,2.035,0,4.544v270.911C0,277.965,2.034,280,4.544,280h270.911c2.509,0,4.544-2.035,4.544-4.544   V4.544C280,2.035,277.965,0,275.456,0z M225,183.908c0,2.225-1.804,4.029-4.029,4.029h-33.034v33.034   c0,2.225-1.803,4.029-4.029,4.029H59.029c-2.226,0-4.029-1.805-4.029-4.029V96.092c0-2.225,1.804-4.029,4.029-4.029h33.034V59.029   c0-2.225,1.804-4.029,4.029-4.029h124.878c2.226,0,4.029,1.805,4.029,4.029V183.908z" fill="#ffffff" data-original="#000000" style="" class=""/>
</g>
<g xmlns="http://www.w3.org/2000/svg">
</g>
<g xmlns="http://www.w3.org/2000/svg">
</g>
<g xmlns="http://www.w3.org/2000/svg">
</g>
<g xmlns="http://www.w3.org/2000/svg">
</g>
<g xmlns="http://www.w3.org/2000/svg">
</g>
<g xmlns="http://www.w3.org/2000/svg">
</g>
<g xmlns="http://www.w3.org/2000/svg">
</g>
<g xmlns="http://www.w3.org/2000/svg">
</g>
<g xmlns="http://www.w3.org/2000/svg">
</g>
<g xmlns="http://www.w3.org/2000/svg">
</g>
<g xmlns="http://www.w3.org/2000/svg">
</g>
<g xmlns="http://www.w3.org/2000/svg">
</g>
<g xmlns="http://www.w3.org/2000/svg">
</g>
<g xmlns="http://www.w3.org/2000/svg">
</g>
<g xmlns="http://www.w3.org/2000/svg">
</g>
</g></svg>
